<svg width="24" height="24" viewBox="0 0 24 24" fill="none" stroke="currentColor" stroke-width="2" stroke-linecap="round" stroke-linejoin="round" version="1.1" id="svg1" sodipodi:docname="mastodon.svg" xml:space="preserve" inkscape:version="1.4.2 (ebf0e940d0, 2025-05-08)" xmlns:inkscape="http://www.inkscape.org/namespaces/inkscape" xmlns:sodipodi="http://sodipodi.sourceforge.net/DTD/sodipodi-0.dtd" xmlns="http://www.w3.org/2000/svg" xmlns:svg="http://www.w3.org/2000/svg" xmlns:rdf="http://www.w3.org/1999/02/22-rdf-syntax-ns#" xmlns:cc="http://creativecommons.org/ns#" xmlns:dc="http://purl.org/dc/elements/1.1/"><defs id="defs1"></defs><sodipodi:namedview id="namedview1" pagecolor="#505050" bordercolor="#ffffff" borderopacity="1" inkscape:showpageshadow="0" inkscape:pageopacity="0" inkscape:pagecheckerboard="1" inkscape:deskcolor="#505050" inkscape:zoom="20.585194" inkscape:cx="4.6878354" inkscape:cy="3.3033452" inkscape:window-width="1366" inkscape:window-height="699" inkscape:window-x="0" inkscape:window-y="0" inkscape:window-maximized="1" inkscape:current-layer="svg1"></sodipodi:namedview><title id="title1">Mastodon</title><g id="g1" transform="matrix(0.10313522,0,0,0.10313522,0.83986934,0.03582195)"><path d="m 203.26674,137.18564 c -2.91909,15.01758 -26.14454,31.45283 -52.81901,34.63803 -13.90958,1.6597 -27.60467,3.1852 -42.20818,2.51536 -23.882684,-1.09423 -42.727773,-5.70056 -42.727773,-5.70056 0,2.32496 0.143373,4.53865 0.430122,6.60898 3.104909,23.56955 23.371122,24.9815 42.568341,25.63987 19.37615,0.66296 36.62922,-4.77722 36.62922,-4.77722 l 0.79601,17.51687 c 0,0 -13.55287,7.27766 -37.69592,8.6162 -13.313147,0.73178 -29.843605,-0.33492 -49.097023,-5.431 C 17.385112,205.75975 10.203791,161.2484 9.1049728,116.08442 8.7700505,102.67492 8.9765088,90.03048 8.9765088,79.455207 8.9765088,33.272696 39.235322,19.735889 39.235322,19.735889 54.492619,12.728911 80.672726,9.7822859 107.88972,9.55977 h 0.6687 c 27.21699,0.2225159 53.41429,3.169141 68.67044,10.176119 0,0 30.25767,13.536807 30.25767,59.719318 0,0 0.37966,34.073713 -4.21979,57.730433" id="path1-3" fill="currentColor" style="fill:none;stroke:currentColor;stroke-width:19.8142;stroke-linecap:round;stroke-linejoin:round;stroke-dasharray:none;stroke-opacity:1"></path><path d="m 177.50984,80.077 v 60.94125 h -24.14375 v -59.15 c 0,-12.46875 -5.24625,-18.7975 -15.74,-18.7975 -11.6025,0 -17.4175,7.5075 -17.4175,22.3525 V 117.7995 H 96.20734 V 85.42325 c 0,-14.845 -5.81625,-22.3525 -17.41875,-22.3525 -10.49375,0 -15.74,6.32875 -15.74,18.7975 v 59.15 H 38.90484 V 80.077 c 0,-12.455 3.17125,-22.3525 9.54125,-29.675 6.56875,-7.3225 15.17125,-11.07625 25.85,-11.07625 12.355,0 21.71125,4.74875 27.8975,14.2475 l 6.01375,10.08125 6.015,-10.08125 c 6.185,-9.49875 15.54125,-14.2475 27.8975,-14.2475 10.6775,0 19.28,3.75375 25.85,11.07625 6.36875,7.3225 9.54,17.22 9.54,29.675" id="path2" fill="currentColor" style="fill:currentColor;fill-opacity:1"></path></g><metadata id="metadata1"><rdf:rdf><cc:work rdf:about=""><dc:title>Mastodon</dc:title></cc:work></rdf:rdf></metadata></svg>