<?xml version="1.0" encoding="UTF-8" standalone="no"?>
<svg
   id="Layer_1"
   viewBox="0 0 250 178"
   version="1.1"
   xmlns="http://www.w3.org/2000/svg"
   xmlns:svg="http://www.w3.org/2000/svg">
  <defs
     id="defs1" />
  <path
     id="path18"
     style="fill:none;stroke:#dc0067;stroke-width:2.87602;stroke-linecap:butt;stroke-linejoin:miter;stroke-miterlimit:3.86369;stroke-dasharray:none;stroke-opacity:1"
     d="m 1.90101,118.22066 c 0,-31.798566 25.669391,-57.576206 57.335006,-57.576206 31.665297,0 57.334844,25.77764 57.334844,57.576206 0,31.79922 -25.669547,57.57647 -57.334844,57.57647 -31.665615,0 -57.335006,-25.77725 -57.335006,-57.57647 z" />
  <path
     id="path20"
     style="fill:#ffb400;fill-opacity:1;fill-rule:nonzero;stroke:none;stroke-width:0.0646994"
     d="m 132.71794,105.15198 24.27337,-24.383346 h 22.85967 l -16.18138,16.25578 32.39188,-4.9e-4 v 16.253846 l -32.39188,0.002 16.18138,16.25579 h -22.85967 l -24.27337,-24.38401" />
  <path
     id="path22"
     style="fill:#ffb400;fill-opacity:1;fill-rule:nonzero;stroke:none;stroke-width:0.0646994"
     d="M 60.720873,105.15198 46.385053,90.751144 H 32.883859 l 9.55704,9.600766 -19.129091,4.9e-4 v 9.60272 l 19.129091,-0.002 -9.55704,9.60078 h 13.501194 l 14.33582,-14.4015" />
  <path
     id="path24"
     style="fill:none;stroke:#dc0067;stroke-width:17.2752;stroke-linecap:butt;stroke-linejoin:miter;stroke-miterlimit:3.86369;stroke-dasharray:none;stroke-opacity:1"
     d="m 81.022974,89.243644 c 0,-44.51788 35.936716,-80.606044 80.268266,-80.606044 44.33154,0 80.26832,36.088164 80.26832,80.606044 0,44.518396 -35.93678,80.606416 -80.26832,80.606416 -44.33155,0 -80.268266,-36.08802 -80.268266,-80.606416 z" />
  <path
     id="path26"
     style="fill:none;stroke:#dc0067;stroke-width:2.87602;stroke-linecap:butt;stroke-linejoin:miter;stroke-miterlimit:3.86369;stroke-dasharray:none;stroke-opacity:1"
     d="m 99.776802,89.243644 c 0,-34.11677 27.540668,-61.773278 61.514438,-61.773278 33.97378,0 61.51383,27.656508 61.51383,61.773278 0,34.116756 -27.54005,61.773266 -61.51383,61.773266 -33.97377,0 -61.514438,-27.65651 -61.514438,-61.773266 z" />
</svg>
