<?xml version="1.0" encoding="UTF-8" standalone="no"?>
<svg
   id="Layer_1"
   viewBox="0 0 250 250"
   version="1.1"
   sodipodi:docname="logo.svg"
   inkscape:version="1.3 (0e150ed6c4, 2023-07-21)"
   width="250"
   height="250"
   xmlns:inkscape="http://www.inkscape.org/namespaces/inkscape"
   xmlns:sodipodi="http://sodipodi.sourceforge.net/DTD/sodipodi-0.dtd"
   xmlns="http://www.w3.org/2000/svg"
   xmlns:svg="http://www.w3.org/2000/svg">
  <sodipodi:namedview
     id="namedview1"
     pagecolor="#505050"
     bordercolor="#ffffff"
     borderopacity="1"
     inkscape:showpageshadow="0"
     inkscape:pageopacity="0"
     inkscape:pagecheckerboard="1"
     inkscape:deskcolor="#505050"
     inkscape:zoom="2.3139871"
     inkscape:cx="56.396166"
     inkscape:cy="143.69138"
     inkscape:window-width="2560"
     inkscape:window-height="1371"
     inkscape:window-x="0"
     inkscape:window-y="0"
     inkscape:window-maximized="1"
     inkscape:current-layer="Layer_1" />
  <defs
     id="defs1" />
  <g
     id="g1"
     transform="matrix(1.090182,0,0,1.090182,-7.6108466,25.606486)">
    <path
       id="path2"
       style="fill:#fcfcfc;fill-opacity:1;stroke:#ffffff;stroke-width:20.6708;stroke-linecap:butt;stroke-linejoin:miter;stroke-miterlimit:3.86369;stroke-dasharray:none;stroke-opacity:1"
       d="m 17.316662,113.49458 c 0,-26.854941 21.678653,-48.625014 48.421316,-48.625014 26.742394,0 48.421182,21.770073 48.421182,48.625014 0,26.8555 -21.678788,48.62524 -48.421182,48.62524 -26.742663,0 -48.421316,-21.76974 -48.421316,-48.62524 z" />
    <path
       id="path1"
       style="fill:#fefefe;fill-opacity:1;stroke:#fffdfe;stroke-width:33.169;stroke-linecap:butt;stroke-linejoin:miter;stroke-miterlimit:3.86369;stroke-dasharray:none;stroke-opacity:1"
       d="m 84.137787,89.022531 c 0,-37.596827 30.349753,-68.074479 67.789223,-68.074479 37.43945,0 67.78926,30.477652 67.78926,68.074479 0,37.597259 -30.34981,68.074789 -67.78926,68.074789 -37.43947,0 -67.789223,-30.47753 -67.789223,-68.074789 z" />
    <path
       id="path18"
       style="fill:none;stroke:#dc0067;stroke-width:2.42889;stroke-linecap:butt;stroke-linejoin:miter;stroke-miterlimit:3.86369;stroke-dasharray:none;stroke-opacity:1"
       d="m 17.316662,113.49458 c 0,-26.854941 21.678653,-48.625014 48.421316,-48.625014 26.742394,0 48.421182,21.770073 48.421182,48.625014 0,26.8555 -21.678788,48.62524 -48.421182,48.62524 -26.742663,0 -48.421316,-21.76974 -48.421316,-48.62524 z" />
    <path
       id="path20"
       style="fill:#ffb400;fill-opacity:1;fill-rule:nonzero;stroke:none;stroke-width:0.0546408"
       d="m 127.79591,102.45765 20.49966,-20.592546 h 19.30575 l -13.66571,13.728546 27.35602,-4.14e-4 v 13.726914 l -27.35602,0.002 13.66571,13.72855 h -19.30575 l -20.49966,-20.59311" />
    <path
       id="path22"
       style="fill:#ffb400;fill-opacity:1;fill-rule:nonzero;stroke:none;stroke-width:0.0546408"
       d="M 66.991989,102.45765 54.884913,90.295665 H 43.482707 l 8.071237,8.108166 -16.155152,4.13e-4 v 8.109816 l 16.155152,-0.002 -8.071237,8.10818 H 54.884913 L 66.991989,102.458" />
    <path
       id="path24"
       style="fill:none;stroke:#dc0067;stroke-width:14.5895;stroke-linecap:butt;stroke-linejoin:miter;stroke-miterlimit:3.86369;stroke-dasharray:none;stroke-opacity:1"
       d="m 84.137787,89.022531 c 0,-37.596827 30.349753,-68.074479 67.789223,-68.074479 37.43945,0 67.78926,30.477652 67.78926,68.074479 0,37.597259 -30.34981,68.074789 -67.78926,68.074789 -37.43947,0 -67.789223,-30.47753 -67.789223,-68.074789 z" />
    <path
       id="path26"
       style="fill:none;stroke:#dc0067;stroke-width:2.42889;stroke-linecap:butt;stroke-linejoin:miter;stroke-miterlimit:3.86369;stroke-dasharray:none;stroke-opacity:1"
       d="m 99.976018,89.022531 c 0,-28.812744 23.259012,-52.169583 51.950992,-52.169583 28.69198,0 51.95047,23.356839 51.95047,52.169583 0,28.812729 -23.25849,52.169569 -51.95047,52.169569 -28.69198,0 -51.950992,-23.35684 -51.950992,-52.169569 z" />
  </g>
</svg>
