<?xml version="1.0" encoding="UTF-8" standalone="no"?>
<svg
   id="Layer_1"
   viewBox="0 0 250 250"
   version="1.1"
   xmlns="http://www.w3.org/2000/svg"
   xmlns:svg="http://www.w3.org/2000/svg">
  <defs
     id="defs1" />
  <path
     id="path18"
     style="fill:none;stroke:#dc0067;stroke-width:2.87602;stroke-linecap:butt;stroke-linejoin:miter;stroke-miterlimit:3.86369;stroke-dasharray:none;stroke-opacity:1"
     d="m 1.900734,156.80097 c 0,-31.79857 25.669391,-57.57621 57.335006,-57.57621 31.665297,0 57.33484,25.77764 57.33484,57.57621 0,31.79922 -25.669543,57.57647 -57.33484,57.57647 -31.665615,0 -57.335006,-25.77725 -57.335006,-57.57647 z" />
  <path
     id="path20"
     style="fill:#ffb400;fill-opacity:1;fill-rule:nonzero;stroke:none;stroke-width:0.0646994"
     d="m 132.71766,143.73229 24.27337,-24.38335 h 22.85967 l -16.18138,16.25578 32.39188,-4.9e-4 v 16.25385 l -32.39188,0.002 16.18138,16.25579 h -22.85967 l -24.27337,-24.38401" />
  <path
     id="path22"
     style="fill:#ffb400;fill-opacity:1;fill-rule:nonzero;stroke:none;stroke-width:0.0646994"
     d="M 60.720597,143.73229 46.384777,129.33145 H 32.883583 l 9.55704,9.60077 -19.129091,4.9e-4 v 9.60272 l 19.129091,-0.002 -9.55704,9.60078 h 13.501194 l 14.33582,-14.4015" />
  <path
     id="path24"
     style="fill:none;stroke:#dc0067;stroke-width:17.2752;stroke-linecap:butt;stroke-linejoin:miter;stroke-miterlimit:3.86369;stroke-dasharray:none;stroke-opacity:1"
     d="m 81.022698,127.82395 c 0,-44.51788 35.936712,-80.606044 80.268262,-80.606044 44.33154,0 80.26832,36.088164 80.26832,80.606044 0,44.5184 -35.93678,80.60642 -80.26832,80.60642 -44.33155,0 -80.268262,-36.08802 -80.268262,-80.60642 z" />
  <path
     id="path26"
     style="fill:none;stroke:#dc0067;stroke-width:2.87602;stroke-linecap:butt;stroke-linejoin:miter;stroke-miterlimit:3.86369;stroke-dasharray:none;stroke-opacity:1"
     d="m 99.776526,127.82395 c 0,-34.11677 27.540664,-61.773278 61.514434,-61.773278 33.97378,0 61.51383,27.656508 61.51383,61.773278 0,34.11676 -27.54005,61.77327 -61.51383,61.77327 -33.97377,0 -61.514434,-27.65651 -61.514434,-61.77327 z" />
</svg>
